HIERARCHY
ROOT Hips
{
	OFFSET -0.001795 -0.223333 0.028219
	CHANNELS 6 Xposition Yposition Zposition Zrotation Yrotation Xrotation 
	JOINT LeftUpLeg
	{
		OFFSET 0.069520 -0.091406 -0.006815
		CHANNELS 3 Zrotation Yrotation Xrotation
		JOINT LeftLeg
		{
			OFFSET 0.034277 -0.375199 -0.004496
			CHANNELS 3 Zrotation Yrotation Xrotation
			JOINT LeftFoot
			{
				OFFSET -0.013596 -0.397961 -0.043693
				CHANNELS 3 Zrotation Yrotation Xrotation
				JOINT LeftToe
				{
					OFFSET 0.026358 -0.055791 0.119288
					CHANNELS 3 Zrotation Yrotation Xrotation
					End Site
					{
						OFFSET 0.000000 0.000000 0.000000
					}
				}
			}
		}
	}
	JOINT RightUpLeg
	{
		OFFSET -0.067670 -0.090522 -0.004320
		CHANNELS 3 Zrotation Yrotation Xrotation
		JOINT RightLeg
		{
			OFFSET -0.038290 -0.382569 -0.008850
			CHANNELS 3 Zrotation Yrotation Xrotation
			JOINT RightFoot
			{
				OFFSET 0.015774 -0.398415 -0.042312
				CHANNELS 3 Zrotation Yrotation Xrotation
				JOINT RightToe
				{
					OFFSET -0.025372 -0.048144 0.123348
					CHANNELS 3 Zrotation Yrotation Xrotation
					End Site
					{
						OFFSET 0.000000 0.000000 0.000000
					}
				}
			}
		}
	}
	JOINT Spine
	{
		OFFSET -0.002533 0.108963 -0.026696
		CHANNELS 3 Zrotation Yrotation Xrotation
		JOINT Spine1
		{
			OFFSET 0.005487 0.135180 0.001092
			CHANNELS 3 Zrotation Yrotation Xrotation
			JOINT Spine2
			{
				OFFSET 0.001457 0.052922 0.025425
				CHANNELS 3 Zrotation Yrotation Xrotation
				JOINT Neck
				{
					OFFSET -0.002778 0.213870 -0.042857
					CHANNELS 3 Zrotation Yrotation Xrotation
					JOINT Head
					{
						OFFSET 0.005152 0.064970 0.051349
						CHANNELS 3 Zrotation Yrotation Xrotation
						End Site
						{
							OFFSET 0.000000 0.000000 0.000000
						}
					}
				}
				JOINT LeftShoulder
				{
					OFFSET 0.078845 0.121749 -0.034090
					CHANNELS 3 Zrotation Yrotation Xrotation
					JOINT LeftArm
					{
						OFFSET 0.090977 0.030469 -0.008868
						CHANNELS 3 Zrotation Yrotation Xrotation
						JOINT LeftForeArm
						{
							OFFSET 0.259612 -0.012772 -0.027456
							CHANNELS 3 Zrotation Yrotation Xrotation
							JOINT LeftHand
							{
								OFFSET 0.249234 0.008986 -0.001171
								CHANNELS 3 Zrotation Yrotation Xrotation
								End Site
								{
									OFFSET 0.000000 0.000000 0.000000
								}
							}
						}
					}
				}
				JOINT RightShoulder
				{
					OFFSET -0.081759 0.118833 -0.038615
					CHANNELS 3 Zrotation Yrotation Xrotation
					JOINT RightArm
					{
						OFFSET -0.096012 0.032551 -0.009143
						CHANNELS 3 Zrotation Yrotation Xrotation
						JOINT RightForeArm
						{
							OFFSET -0.253742 -0.013329 -0.021401
							CHANNELS 3 Zrotation Yrotation Xrotation
							JOINT RightHand
							{
								OFFSET -0.255298 0.007772 -0.005559
								CHANNELS 3 Zrotation Yrotation Xrotation
								End Site
								{
									OFFSET 0.000000 0.000000 0.000000
								}
							}
						}
					}
				}
			}
		}
	}
}
MOTION
Frames: 5
Frame Time: 0.050000
0.000000 0.749823 0.000000 -5.677324 -11.606416 20.378729 20.309312 13.385006 -70.985271 -25.618450 23.306867 70.711135 14.867365 30.835010 -7.612240 0.000000 0.000000 0.000000 -16.326577 1.793728 -48.358926 20.301551 -9.998787 67.894718 -9.158295 -27.059461 -19.943045 0.000000 0.000000 0.000000 0.075172 1.354703 61.064481 -5.819096 1.576686 -26.743935 -3.115022 8.443635 23.946804 16.671942 -5.006666 -33.310419 0.000000 0.000000 0.000000 -24.747754 -42.722516 24.627665 -6.652568 -27.775294 -1.691028 14.984775 -14.849889 -1.352400 0.000000 0.000000 0.000000 31.851717 29.761006 22.565746 3.831118 35.113074 -2.991651 -16.480480 27.085886 -2.719700 0.000000 0.000000 0.000000 
0.005666 0.725141 0.033562 -6.207913 -11.788144 21.462347 21.100452 15.345033 -74.742906 -25.929311 23.973984 72.883763 14.343337 29.025154 -4.371871 0.000000 0.000000 0.000000 -17.869252 1.397656 -48.599384 21.629827 -12.265239 73.406965 -10.304198 -30.144696 -15.271015 0.000000 0.000000 0.000000 -1.640110 2.832624 63.368909 -2.393723 0.951291 -26.573611 -3.887592 11.696649 24.442001 21.700760 -4.404728 -42.693611 0.000000 0.000000 0.000000 -23.897930 -46.932576 26.104805 -0.233153 -25.961957 -2.427549 12.736418 -13.459419 -0.959523 0.000000 0.000000 0.000000 31.986417 27.297349 22.653215 -1.955540 35.093291 -4.412234 -19.128921 27.927524 -3.483013 0.000000 0.000000 0.000000 
0.014065 0.704180 0.069914 -6.959224 -13.481123 21.806830 20.329753 16.532099 -76.881763 -24.580080 24.325258 77.168068 13.590721 27.999334 -7.600650 0.000000 0.000000 0.000000 -19.590663 1.236373 -45.300822 22.528947 -12.425833 74.287789 -9.817384 -29.260946 -16.984252 0.000000 0.000000 0.000000 -3.399612 5.224481 66.482586 -1.234116 0.767548 -29.779598 -2.764981 12.022041 27.833167 18.646232 -4.197426 -39.051919 0.000000 0.000000 0.000000 -19.233201 -47.657518 24.532179 2.877938 -27.621921 -3.138257 11.968411 -7.903910 -0.522525 0.000000 0.000000 0.000000 29.760298 27.378667 22.019282 -6.361380 36.074380 -5.510533 -20.259716 23.679301 -3.182022 0.000000 0.000000 0.000000 
0.024854 0.686897 0.107275 -9.860653 -14.167722 26.544317 18.860359 16.761044 -78.735915 -22.012255 23.154229 80.517285 14.489144 30.567712 -10.198112 0.000000 0.000000 0.000000 -21.179806 1.295034 -47.844860 24.323179 -13.860829 72.956056 -10.060724 -29.941884 -14.917121 0.000000 0.000000 0.000000 -3.932141 6.281970 66.471716 -1.885505 0.883637 -30.274829 -1.885479 10.491779 28.709874 17.068659 -2.959571 -41.998180 0.000000 0.000000 0.000000 -15.100793 -49.130267 24.582463 5.798390 -24.402946 -3.163444 11.206661 -6.050829 -0.374837 0.000000 0.000000 0.000000 24.063296 30.330542 21.543832 -3.830556 36.074883 -4.966377 -23.873694 22.852379 -3.567938 0.000000 0.000000 0.000000 
0.036460 0.675211 0.146409 -11.882318 -14.827265 30.759444 18.919619 17.860952 -79.006772 -20.705801 23.117053 83.093738 15.204826 33.705056 -14.972432 0.000000 0.000000 0.000000 -21.150353 1.795505 -47.835399 24.495689 -13.310877 71.628144 -9.835406 -28.886872 -12.267418 0.000000 0.000000 0.000000 -5.837029 8.371816 65.872982 -0.657673 0.742450 -31.464152 -1.840953 10.332978 29.937038 17.541825 -3.370327 -40.762754 0.000000 0.000000 0.000000 -10.925952 -48.976166 23.048976 6.984328 -22.848050 -3.142752 11.490538 -3.763173 -0.247961 0.000000 0.000000 0.000000 24.354043 31.388220 22.579412 -6.330133 35.975708 -5.712232 -26.558655 20.495115 -3.516177 0.000000 0.000000 0.000000 
